<svg width="177" height="177" viewBox="0 0 177 177" fill="none" xmlns="http://www.w3.org/2000/svg">
<path d="M150.257 150.257C115.884 184.631 60.1536 184.631 25.7801 150.257C-8.59336 115.884 -8.59336 60.1536 25.7801 25.7801C60.1536 -8.59336 115.884 -8.59336 150.257 25.7801C184.631 60.1536 184.631 115.884 150.257 150.257Z" fill="#0D849E"/>
<path d="M92.2804 175.935C113.365 174.92 134.155 166.36 150.257 150.258C184.631 115.884 184.631 60.154 150.257 25.7805C115.884 -8.59294 60.1536 -8.59294 25.7801 25.7805C20.977 30.5836 16.8451 35.8036 13.3844 41.3241C12.3952 60.8257 17.1867 78.6423 30.8465 94.4022C42.4987 107.852 53.9205 121.516 65.0905 135.361C73.2671 145.482 80.1409 156.53 87.0071 167.566C88.2695 169.595 89.5317 171.624 90.8017 173.646C91.2861 174.418 91.7788 175.181 92.2804 175.935Z" fill="#31C08C"/>
<path d="M56.776 36.4445C55.1029 40.8256 53.6924 45.3483 52.6688 49.9249C52.4921 50.7147 52.3323 51.4987 52.2192 52.2727C50.391 64.8063 52.4067 76.1511 60.9314 85.9864C67.1143 93.123 73.1751 100.374 79.1022 107.72C84.2386 114.078 88.4062 121.126 92.7452 128.036C96.1981 133.532 100.442 138.273 106.324 141.19C114.811 145.401 122.925 142.403 128.05 135.367C132.167 129.717 135.685 123.637 140.673 118.621C144.593 114.678 148.444 110.712 151.657 106.058C154.395 102.087 155.442 97.8403 155.843 93.3252C156.523 85.6283 153.9 78.5637 150.915 71.7005C147.962 64.91 145.051 58.1125 142.197 51.2753C139.544 44.9302 136.412 38.8446 130.566 34.6138C128.85 33.3745 127.285 31.9562 125.335 31.0531C119.037 28.1381 112.717 25.3036 105.928 23.6929C94.0453 20.8715 82.0465 19.9368 70.3301 23.8159C64.2355 25.8347 59.2392 29.9972 56.776 36.4445Z" fill="#99D98C"/>
<path d="M81.6677 55.2417C79.1804 58.5597 77.367 62.4519 76.897 66.5719C76.1187 73.3679 77.149 79.7361 80.3394 85.7467C83.3186 91.3732 87.4836 96.0968 92.736 99.5664C95.9698 101.7 99.7405 103.267 103.847 103.199C110.28 103.09 116.606 102.517 122.682 100.051C128.969 97.5003 131.533 93.1479 131.511 86.5861C131.492 81.342 130.111 76.2665 128.109 71.4765C125.854 66.0862 122.998 61.0137 119.267 56.3968C112.508 48.0278 101.446 45.3507 91.8634 48.8659C88.0846 50.252 84.389 51.6985 81.788 55.0831C81.7486 55.1343 81.7085 55.1872 81.6677 55.2417Z" fill="#D9ED92"/>
</svg>
